<?xml version="1.0" encoding="UTF-8"?>
<svg xmlns="http://www.w3.org/2000/svg" id="Layer_1" version="1.1" viewBox="0 0 30 30">
  <path d="M21,26.2l-1.3-1.3,2-2-2-2,1.3-1.3,2,2,2-2,1.3,1.3-2,2,2,2-1.3,1.3-2-2-2,2ZM7.2,24.4c.4,0,.8-.1,1.1-.4.3-.3.5-.7.5-1.1s-.1-.8-.4-1.1c-.3-.3-.7-.5-1.1-.5s-.8.1-1.1.4c-.3.3-.5.7-.5,1.1s.1.8.4,1.1c.3.3.7.5,1.1.5ZM7.2,26.2c-1,0-1.8-.3-2.4-1-.7-.7-1-1.5-1-2.4s.3-1.8,1-2.4c.7-.7,1.5-1,2.4-1s1.5.2,2.1.7c.6.5,1,1.1,1.2,1.8,1,0,1.8-.4,2.5-1.2.7-.7,1-1.6,1-2.6v-5.7c0-1.6.6-3,1.7-4.2,1.2-1.2,2.6-1.7,4.2-1.7h2.6l-2.3-2.3,1.3-1.3,4.6,4.6-4.6,4.6-1.3-1.3,2.3-2.3h-2.6c-1.1,0-2.1.4-2.9,1.2-.8.8-1.2,1.7-1.2,2.9v5.7c0,1.5-.5,2.8-1.6,3.9-1.1,1.1-2.3,1.7-3.9,1.7-.2.7-.6,1.3-1.3,1.8-.6.5-1.3.7-2,.7ZM5.1,10.4l-1.3-1.3,2-2-2-2,1.3-1.3,2,2,2-2,1.3,1.3-2,2,2,2-1.3,1.3-2-2-2,2Z" fill="#004d80"></path>
</svg>
