<?xml version="1.0" encoding="UTF-8"?>
<svg xmlns="http://www.w3.org/2000/svg" width="30" height="30" viewBox="0 0 30 30" fill="none">
  <path d="M14.0625 2.5V6.1875H15.9375V2.5H14.0625ZM2.5 14.0625V15.9375H6.1875V14.0625H2.5ZM23.8125 14.0625V15.9375H27.5V14.0625H23.8125ZM23.0938 5.5625L20.5312 8.125L21.875 9.46875L24.4375 6.90625L23.0938 5.5625ZM6.90625 5.5625L5.5625 6.90625L8.125 9.46875L9.46875 8.125L6.90625 5.5625ZM15 9.3125C13.4375 9.3125 12.099 9.86979 10.9844 10.9844C9.86979 12.099 9.3125 13.4375 9.3125 15C9.3125 16.0208 9.53125 16.9375 9.96875 17.75C10.4062 18.5625 11.0208 19.2292 11.8125 19.75V26.25H18.1875V19.75C18.9792 19.2292 19.5938 18.5625 20.0312 17.75C20.4688 16.9375 20.6875 16.0208 20.6875 15C20.6875 13.4375 20.1302 12.099 19.0156 10.9844C17.901 9.86979 16.5625 9.3125 15 9.3125ZM13.6875 20.4062C13.9062 20.4688 14.125 20.5156 14.3438 20.5469C14.5625 20.5781 14.7812 20.5938 15 20.5938C15.2188 20.5938 15.4375 20.5781 15.6562 20.5469C15.875 20.5156 16.0938 20.4688 16.3125 20.4062V24.375H13.6875V20.4062ZM15.0037 11.1875C16.0637 11.1875 16.9635 11.5585 17.7031 12.3006C18.4427 13.0427 18.8125 13.9438 18.8125 15.0037C18.8125 16.0637 18.4415 16.9635 17.6994 17.7031C16.9573 18.4427 16.0562 18.8125 14.9963 18.8125C13.9363 18.8125 13.0365 18.4415 12.2969 17.6994C11.5573 16.9573 11.1875 16.0562 11.1875 14.9963C11.1875 13.9363 11.5585 13.0365 12.3006 12.2969C13.0427 11.5573 13.9438 11.1875 15.0037 11.1875Z" fill="#004D80"></path>
</svg>
