<?xml version="1.0" encoding="UTF-8"?>
<svg xmlns="http://www.w3.org/2000/svg" width="30" height="30" viewBox="0 0 30 30" fill="none">
  <path d="M13.925 17.05L19.6 11.4L18.175 9.975L13.925 14.225L11.8 12.1L10.4 13.5L13.925 17.05ZM4 24V22H26V24H4ZM7 21C6.45 21 5.97917 20.8042 5.5875 20.4125C5.19583 20.0208 5 19.55 5 19V8C5 7.45 5.19583 6.97917 5.5875 6.5875C5.97917 6.19583 6.45 6 7 6H23C23.55 6 24.0208 6.19583 24.4125 6.5875C24.8042 6.97917 25 7.45 25 8V19C25 19.55 24.8042 20.0208 24.4125 20.4125C24.0208 20.8042 23.55 21 23 21H7ZM7 19H23V8H7V19Z" fill="#004D80"></path>
</svg>
