<?xml version="1.0" encoding="UTF-8"?>
<svg xmlns="http://www.w3.org/2000/svg" width="30" height="30" viewBox="0 0 30 30" fill="none">
  <g clip-path="url(#clip0_1147_1400)">
    <path d="M14.8125 28.75L2.90625 16.8438L12.375 7.375L16.9375 11.9375L18.25 10.625L10.75 3.125L1.28125 12.5938L3.5625 14.875L2.25 16.1875L-1.375 12.5625L10.7188 0.46875L14.5938 4.34375L18.4688 0.46875L30.7812 12.7812L14.8125 28.75ZM14.8438 26.125L28.125 12.7812L18.4688 3.125L15.9375 5.65625L20.9062 10.625L16.9375 14.5938L12.375 10.0312L5.5625 16.8438L6.875 18.1562L11.9688 13.0625L13.3125 14.4062L8.21875 19.5L9.5625 20.8438L14.6562 15.75L15.9688 17.0625L10.875 22.1562L12.1562 23.4375L17.25 18.3438L18.5938 19.6875L13.5 24.7812L14.8438 26.125Z" fill="#004D80"></path>
  </g>
  <defs>
    <clipPath id="clip0_1147_1400">
      <rect width="30" height="30" fill="white"></rect>
    </clipPath>
  </defs>
</svg>
