<?xml version="1.0" encoding="UTF-8"?>
<svg xmlns="http://www.w3.org/2000/svg" width="30" height="30" viewBox="0 0 30 30" fill="none">
  <g clip-path="url(#clip0_2919_6710)">
    <path d="M6.5 25C5.8125 25 5.22396 24.7552 4.73438 24.2656C4.24479 23.776 4 23.1875 4 22.5C4 21.8125 4.24479 21.224 4.73438 20.7344C5.22396 20.2448 5.8125 20 6.5 20C7.1875 20 7.77604 20.2448 8.26562 20.7344C8.75521 21.224 9 21.8125 9 22.5C9 23.1875 8.75521 23.776 8.26562 24.2656C7.77604 24.7552 7.1875 25 6.5 25ZM6.5 17.5C5.8125 17.5 5.22396 17.2552 4.73438 16.7656C4.24479 16.276 4 15.6875 4 15C4 14.3125 4.24479 13.724 4.73438 13.2344C5.22396 12.7448 5.8125 12.5 6.5 12.5C7.1875 12.5 7.77604 12.7448 8.26562 13.2344C8.75521 13.724 9 14.3125 9 15C9 15.6875 8.75521 16.276 8.26562 16.7656C7.77604 17.2552 7.1875 17.5 6.5 17.5ZM6.5 10C5.8125 10 5.22396 9.75521 4.73438 9.26562C4.24479 8.77604 4 8.1875 4 7.5C4 6.8125 4.24479 6.22396 4.73438 5.73438C5.22396 5.24479 5.8125 5 6.5 5C7.1875 5 7.77604 5.24479 8.26562 5.73438C8.75521 6.22396 9 6.8125 9 7.5C9 8.1875 8.75521 8.77604 8.26562 9.26562C7.77604 9.75521 7.1875 10 6.5 10ZM14 10C13.3125 10 12.724 9.75521 12.2344 9.26562C11.7448 8.77604 11.5 8.1875 11.5 7.5C11.5 6.8125 11.7448 6.22396 12.2344 5.73438C12.724 5.24479 13.3125 5 14 5C14.6875 5 15.276 5.24479 15.7656 5.73438C16.2552 6.22396 16.5 6.8125 16.5 7.5C16.5 8.1875 16.2552 8.77604 15.7656 9.26562C15.276 9.75521 14.6875 10 14 10ZM21.5 10C20.8125 10 20.224 9.75521 19.7344 9.26562C19.2448 8.77604 19 8.1875 19 7.5C19 6.8125 19.2448 6.22396 19.7344 5.73438C20.224 5.24479 20.8125 5 21.5 5C22.1875 5 22.776 5.24479 23.2656 5.73438C23.7552 6.22396 24 6.8125 24 7.5C24 8.1875 23.7552 8.77604 23.2656 9.26562C22.776 9.75521 22.1875 10 21.5 10ZM14 17.5C13.3125 17.5 12.724 17.2552 12.2344 16.7656C11.7448 16.276 11.5 15.6875 11.5 15C11.5 14.3125 11.7448 13.724 12.2344 13.2344C12.724 12.7448 13.3125 12.5 14 12.5C14.6875 12.5 15.276 12.7448 15.7656 13.2344C16.2552 13.724 16.5 14.3125 16.5 15C16.5 15.6875 16.2552 16.276 15.7656 16.7656C15.276 17.2552 14.6875 17.5 14 17.5ZM15.25 25V21.1562L22.1562 14.2812C22.3438 14.0938 22.5521 13.9583 22.7812 13.875C23.0104 13.7917 23.2396 13.75 23.4688 13.75C23.7188 13.75 23.9583 13.7969 24.1875 13.8906C24.4167 13.9844 24.625 14.125 24.8125 14.3125L25.9688 15.4688C26.1354 15.6562 26.2656 15.8646 26.3594 16.0938C26.4531 16.3229 26.5 16.5521 26.5 16.7812C26.5 17.0104 26.4583 17.2448 26.375 17.4844C26.2917 17.724 26.1562 17.9375 25.9688 18.125L19.0938 25H15.25ZM17.125 23.125H18.3125L22.0938 19.3125L21.5312 18.7188L20.9375 18.1562L17.125 21.9375V23.125ZM21.5312 18.7188L20.9375 18.1562L22.0938 19.3125L21.5312 18.7188Z" fill="#004D80"></path>
  </g>
  <defs>
    <clipPath id="clip0_2919_6710">
      <rect width="30" height="30" fill="white"></rect>
    </clipPath>
  </defs>
</svg>
