<?xml version="1.0" encoding="UTF-8"?>
<svg xmlns="http://www.w3.org/2000/svg" id="Layer_1" version="1.1" viewBox="0 0 30 30">
  <path d="M17.4,13.8l-5.3-5.3,1.8-1.8,3.5,3.5,7.1-7.1,1.8,1.8-8.8,8.8ZM10,23.1l8.7,2.4,7.4-2.3c-.1-.2-.3-.3-.5-.5-.2-.1-.4-.2-.7-.2h-6.3c-.6,0-1,0-1.3,0-.3,0-.7-.1-1-.2l-2.9-1,.7-2.4,2.5.8c.4.1.8.2,1.2.2s1.2.1,2.1.1c0-.2,0-.4-.2-.7-.1-.2-.3-.3-.5-.4l-7.3-2.7h-2v6.9ZM2.5,27.5v-13.8h9.5c.1,0,.3,0,.4,0,.1,0,.3,0,.4.1l7.3,2.7c.7.2,1.2.7,1.7,1.3.4.6.6,1.3.6,2.1h2.5c1,0,1.9.3,2.7,1,.7.7,1.1,1.6,1.1,2.7v1.2l-10,3.1-8.8-2.4v1.8H2.5ZM5,25h2.5v-8.8h-2.5v8.8Z" fill="#004d80"></path>
</svg>
