<?xml version="1.0" encoding="UTF-8"?>
<svg xmlns="http://www.w3.org/2000/svg" width="31" height="30" viewBox="0 0 31 30" fill="none">
  <path d="M6.34375 12.7814L9.65625 14.1876C10.0312 13.4376 10.4323 12.698 10.8594 11.9689C11.2865 11.2397 11.7396 10.5418 12.2188 9.87512L9.75 9.37512L6.34375 12.7814ZM11.1562 15.3126L15.3125 19.4689C16.5 18.9272 17.6146 18.3126 18.6562 17.6251C19.6979 16.9376 20.5417 16.271 21.1875 15.6251C22.875 13.9376 24.1146 12.2085 24.9062 10.4376C25.6979 8.66679 26.125 6.66679 26.1875 4.43762C23.9583 4.50012 21.9583 4.9272 20.1875 5.71887C18.4167 6.51054 16.6875 7.75012 15 9.43762C14.3542 10.0835 13.6875 10.9272 13 11.9689C12.3125 13.0105 11.6979 14.1251 11.1562 15.3126ZM18.3125 12.3126C17.8958 11.896 17.6875 11.3803 17.6875 10.7657C17.6875 10.1512 17.8958 9.63554 18.3125 9.21887C18.7292 8.8022 19.2448 8.59387 19.8594 8.59387C20.474 8.59387 20.9896 8.8022 21.4062 9.21887C21.8229 9.63554 22.0312 10.1512 22.0312 10.7657C22.0312 11.3803 21.8229 11.896 21.4062 12.3126C20.9896 12.7293 20.474 12.9376 19.8594 12.9376C19.2448 12.9376 18.7292 12.7293 18.3125 12.3126ZM17.8438 24.2814L21.25 20.8751L20.75 18.4064C20.0833 18.8855 19.3854 19.3387 18.6562 19.7657C17.9271 20.1928 17.1875 20.5939 16.4375 20.9689L17.8438 24.2814ZM28.0312 2.59387C28.2188 5.4272 27.8646 8.01054 26.9688 10.3439C26.0729 12.6772 24.5938 14.8751 22.5312 16.9376L22.4688 17.0001L22.4062 17.0626L23.0938 20.5001C23.1562 20.8126 23.1406 21.1147 23.0469 21.4064C22.9531 21.698 22.7917 21.9585 22.5625 22.1876L17.2188 27.5626L14.5625 21.3751L9.25 16.0626L3.0625 13.4064L8.4375 8.06262C8.66667 7.83345 8.92708 7.67199 9.21875 7.57824C9.51042 7.48449 9.8125 7.46887 10.125 7.53137L13.5625 8.21887C13.5833 8.19804 13.6042 8.18241 13.625 8.17199C13.6458 8.16158 13.6667 8.14595 13.6875 8.12512C15.75 6.06262 17.9479 4.57824 20.2812 3.67199C22.6146 2.76574 25.1979 2.40637 28.0312 2.59387ZM5.15625 19.8439C5.88542 19.1147 6.77604 18.7449 7.82812 18.7345C8.88021 18.7241 9.77083 19.0835 10.5 19.8126C11.2292 20.5418 11.5885 21.4324 11.5781 22.4845C11.5677 23.5366 11.1979 24.4272 10.4688 25.1564C9.92708 25.698 9.08854 26.146 7.95312 26.5001C6.81771 26.8543 5.11458 27.1876 2.84375 27.5001C3.15625 25.2293 3.48438 23.521 3.82812 22.3751C4.17188 21.2293 4.61458 20.3855 5.15625 19.8439ZM6.46875 21.1876C6.17708 21.5001 5.91667 21.9897 5.6875 22.6564C5.45833 23.323 5.26042 24.1772 5.09375 25.2189C6.13542 25.0522 6.98958 24.8543 7.65625 24.6251C8.32292 24.396 8.8125 24.1355 9.125 23.8439C9.52083 23.4897 9.72396 23.047 9.73438 22.5157C9.74479 21.9845 9.5625 21.521 9.1875 21.1251C8.79167 20.7501 8.32812 20.5678 7.79688 20.5782C7.26562 20.5887 6.82292 20.7918 6.46875 21.1876Z" fill="#004D80"></path>
</svg>
