<svg width="254" height="59" viewBox="0 0 254 59" fill="none" xmlns="http://www.w3.org/2000/svg">
<path d="M96.7357 31.7935C90.9528 31.7935 85.9695 27.7863 85.9695 21.2537C85.9695 14.721 90.9528 10.7138 96.7357 10.7138C99.3777 10.7138 102.052 11.4869 103.728 12.7689V16.5056C102.122 15.0882 99.947 14.0123 97.1707 14.0123C93.1918 14.0123 90.2491 16.7053 90.2491 21.2537C90.2491 25.802 93.1918 28.495 97.1707 28.495C99.947 28.495 102.122 27.4191 103.728 26.0017V29.7384C102.058 31.0204 99.3777 31.7935 96.7357 31.7935Z" fill="#F0F4EF"/>
<path d="M121.588 31.5874C119.183 31.5874 117.142 30.5759 115.805 27.6124L113.662 23.3024H111.321V31.349H107.24V11.139H115.134C119.88 11.139 121.921 13.9672 121.921 17.2336C121.921 20.094 120.315 22.3167 117.507 22.9609L119.477 26.4269C120.449 28.2115 121.415 28.7849 122.823 28.7849C123.226 28.7849 123.558 28.7527 123.961 28.6174V31.2137C123.194 31.4521 122.324 31.5874 121.588 31.5874ZM111.321 20.4033H114.462C117.001 20.4033 117.903 19.0568 117.903 17.2722C117.903 15.4877 117.001 14.0703 114.462 14.0703H111.321V20.4033Z" fill="#F0F4EF"/>
<path d="M134.529 31.9288C128.375 31.9288 123.597 27.4513 123.597 21.2537C123.597 15.056 128.382 10.5785 134.529 10.5785C140.677 10.5785 145.366 15.056 145.366 21.2537C145.366 27.4513 140.651 31.9288 134.529 31.9288ZM134.529 13.8448C130.518 13.8448 127.876 16.8792 127.876 21.2537C127.876 25.6281 130.518 28.6625 134.529 28.6625C138.54 28.6625 141.086 25.6345 141.086 21.2537C141.086 16.8728 138.476 13.8448 134.529 13.8448Z" fill="#F0F4EF"/>
<path d="M153.26 31.7549C149.914 31.7549 147.509 30.4406 146.14 29.2294L147.074 25.9953C148.411 27.2774 150.515 28.7205 153.26 28.7205C155.268 28.7205 156.804 27.709 156.804 25.9244C156.804 24.243 155.87 23.4312 152.588 22.555C148.372 21.5114 146.703 19.2565 146.703 16.3574C146.703 13.0589 149.313 10.6687 153.624 10.6687C156.1 10.6687 158.307 11.6093 159.644 12.653L158.774 15.5134C157.367 14.5728 155.364 13.7611 153.592 13.7611C151.622 13.7611 150.451 14.6373 150.451 16.0868C150.451 17.2658 151.187 18.142 153.893 18.8506C158.576 20.0296 160.584 22.0139 160.584 25.5186C160.584 29.8608 157.04 31.7484 153.26 31.7484V31.7549Z" fill="#F0F4EF"/>
<path d="M169.431 31.7549C166.086 31.7549 163.68 30.4406 162.312 29.2294L163.246 25.9953C164.582 27.2774 166.687 28.7205 169.431 28.7205C171.44 28.7205 172.975 27.709 172.975 25.9244C172.975 24.243 172.041 23.4312 168.76 22.555C164.544 21.5114 162.874 19.2565 162.874 16.3574C162.874 13.0589 165.484 10.6687 169.796 10.6687C172.272 10.6687 174.479 11.6093 175.816 12.653L174.946 15.5134C173.538 14.5728 171.536 13.7611 169.764 13.7611C167.794 13.7611 166.623 14.6373 166.623 16.0868C166.623 17.2658 167.359 18.142 170.065 18.8506C174.747 20.0296 176.756 22.0139 176.756 25.5186C176.756 29.8608 173.212 31.7484 169.431 31.7484V31.7549Z" fill="#F0F4EF"/>
<path d="M188.731 31.9288C182.577 31.9288 177.799 27.4513 177.799 21.2537C177.799 15.056 182.584 10.5785 188.731 10.5785C194.879 10.5785 199.568 15.056 199.568 21.2537C199.568 27.4513 194.853 31.9288 188.731 31.9288ZM188.731 13.8448C184.72 13.8448 182.078 16.8792 182.078 21.2537C182.078 25.6281 184.72 28.6625 188.731 28.6625C192.742 28.6625 195.288 25.6345 195.288 21.2537C195.288 16.8728 192.678 13.8448 188.731 13.8448Z" fill="#F0F4EF"/>
<path d="M210.302 31.3554H207.225L198.698 11.1454H202.875L208.863 25.6603L214.78 11.1454H218.829L210.302 31.3554Z" fill="#F0F4EF"/>
<path d="M220.831 11.1454H233.907V14.3473H224.913V19.0954H232.237V22.2973H224.913V28.16H233.907V31.3619H220.831V11.1454Z" fill="#F0F4EF"/>
<path d="M251.627 31.5874C249.221 31.5874 247.181 30.5759 245.844 27.6124L243.701 23.3024H241.359V31.349H237.278V11.139H245.172C249.919 11.139 251.959 13.9672 251.959 17.2336C251.959 20.094 250.354 22.3167 247.545 22.9609L249.516 26.4269C250.488 28.2115 251.454 28.7849 252.861 28.7849C253.264 28.7849 253.597 28.7527 254 28.6174V31.2137C253.232 31.4521 252.362 31.5874 251.627 31.5874ZM241.359 20.4033H244.5C247.04 20.4033 247.942 19.0568 247.942 17.2722C247.942 15.4877 247.04 14.0703 244.5 14.0703H241.359V20.4033Z" fill="#F0F4EF"/>
<path d="M96.7357 59C90.9528 59 85.9695 54.9928 85.9695 48.4601C85.9695 41.9275 90.9528 37.9203 96.7357 37.9203C99.3777 37.9203 102.052 38.6934 103.728 39.9754V43.7121C102.122 42.2947 99.947 41.2188 97.1707 41.2188C93.1918 41.2188 90.2491 43.9118 90.2491 48.4601C90.2491 53.0085 93.1918 55.7015 97.1707 55.7015C99.947 55.7015 102.122 54.6256 103.728 53.2082V56.9449C102.058 58.2269 99.3777 59 96.7357 59Z" fill="#F0F4EF"/>
<path d="M121.275 58.5619L119.234 53.5755H111.11L109.069 58.5619H105.122L113.649 38.3519H116.829L125.356 58.5619H121.275ZM115.191 43.3706L112.216 50.715H118.134L115.191 43.3706Z" fill="#F0F4EF"/>
<path d="M134.977 51.2175H131.433V58.5619H127.352V38.3519H134.977C139.794 38.3519 141.931 41.3155 141.931 44.7879C141.931 48.2604 139.788 51.2175 134.977 51.2175ZM134.305 41.2833H131.427V48.2862H134.305C136.947 48.2862 137.881 46.7014 137.881 44.7815C137.881 42.8617 136.947 41.2768 134.305 41.2768V41.2833Z" fill="#F0F4EF"/>
<path d="M144.157 58.5619V38.3519H148.238V58.5619H144.157Z" fill="#F0F4EF"/>
<path d="M161.071 41.5538V58.5619H156.989V41.5538H150.202V38.3519H167.858V41.5538H161.071Z" fill="#F0F4EF"/>
<path d="M181.477 58.5619L179.436 53.5755H171.312L169.271 58.5619H165.325L173.852 38.3519H177.031L185.558 58.5619H181.477ZM175.393 43.3706L172.419 50.715H178.336L175.393 43.3706Z" fill="#F0F4EF"/>
<path d="M187.561 58.5619V38.3519H191.642V55.36H200.636V58.5619H187.561Z" fill="#F0F4EF"/>
<path d="M14.8411 37.9783C14.8411 38.8029 14.8923 39.6082 14.9882 40.4071C6.35224 38.0105 0 30.0476 0 20.5836C0 9.14829 9.49957 0 20.8543 0H74.2822C74.7428 0 75.1202 0.380105 75.1202 0.843961V16.5635C75.1202 17.0274 74.7428 17.4075 74.2822 17.4075H35.2732C23.9888 17.4075 14.8411 26.6202 14.8411 37.9847V37.9783Z" fill="#F0F4EF"/>
<path d="M75.1138 57.7179C75.1138 58.1818 74.7364 58.5619 74.2758 58.5619H35.2668C24.8012 58.5619 16.1781 50.6312 14.9818 40.4135C16.7154 40.8967 18.5386 41.1608 20.4257 41.1608H74.2758C74.7364 41.1608 75.1138 41.5409 75.1138 42.0048V57.7244V57.7179Z" fill="#F0F4EF"/>
</svg>
