<svg xmlns="http://www.w3.org/2000/svg" viewBox="0 0 120 100">
  <path d="M53.53,29.53 L33.05,50.00 L53.53,70.47 L58.47,65.53 L42.95,50.00 L58.47,34.47 Z" fill="#000000"/>
  <path d="M56.30,71.16 L70.30,31.16 L63.70,28.84 L49.70,68.84 Z" fill="#000000"/>
  <path d="M61.53,34.47 L77.05,50.00 L61.53,65.53 L66.47,70.47 L86.95,50.00 L66.47,29.53 Z" fill="#000000"/>
  <path d="M101.00,7.00 L103.12,16.88 L113.00,19.00 L103.12,21.12 L101.00,31.00 L98.88,21.12 L89.00,19.00 L98.88,16.88 Z" fill="#000000"/>
  <path d="M88.00,27.00 L88.71,30.29 L92.00,31.00 L88.71,31.71 L88.00,35.00 L87.29,31.71 L84.00,31.00 L87.29,30.29 Z" fill="#000000"/>
  <path d="M21.00,12.50 L22.20,17.80 L27.50,19.00 L22.20,20.20 L21.00,25.50 L19.80,20.20 L14.50,19.00 L19.80,17.80 Z" fill="#000000"/>
  <path d="M97.00,70.50 L97.85,74.15 L101.50,75.00 L97.85,75.85 L97.00,79.50 L96.15,75.85 L92.50,75.00 L96.15,74.15 Z" fill="#000000"/>
</svg>
