<svg xmlns="http://www.w3.org/2000/svg" viewBox="0 0 321.15 345.36" aria-label="CY Strategies" fill="currentColor"><polygon points="319.07 1.49 238.75 141.97 213.96 98.64 209.62 91.33 237.67 91.41 261.89 49.16 185.52 49.15 172.33 26.02 158.15 1.47 187.73 1.47 200.49 23.67 276.59 23.67 288.87 2.27 289.03 2.37 289.04 1.46 319.07 1.49"/><polygon points="227.56 161.42 161.99 275.48 160.55 276.93 159.51 275.17 2.04 1.46 135.68 1.46 163.01 49.18 133.36 49.19 120.51 26.81 46.64 26.81 160.88 225.58 197.74 161.31 157.63 91.34 187.31 91.39 227.56 161.42"/><path d="M28.3,327.39c-.19,4.27-1.39,7.49-3.6,9.69-2.21,2.19-5.33,3.29-9.35,3.29-4.23,0-7.47-1.39-9.73-4.17s-3.38-6.75-3.38-11.91v-6.29c0-5.14,1.16-9.1,3.49-11.88,2.33-2.78,5.57-4.17,9.71-4.17s7.17,1.14,9.29,3.42c2.12,2.28,3.32,5.55,3.61,9.82h-7.58c-.07-2.64-.48-4.46-1.22-5.46s-2.11-1.5-4.1-1.5-3.45.71-4.29,2.12-1.28,3.74-1.34,6.98v7.07c0,3.72.42,6.27,1.25,7.66.83,1.39,2.26,2.08,4.28,2.08s3.36-.48,4.11-1.45c.75-.97,1.18-2.72,1.28-5.25h7.55Z"/><path d="M43.7,319.24l5.63-16.8h8.22l-10.02,23.84v13.57h-7.66v-13.57l-10.05-23.84h8.22l5.65,16.8Z"/><path d="M87.85,330.65c0-2.09-.6-3.73-1.79-4.93-1.19-1.2-3.41-2.35-6.67-3.44-3.25-1.1-5.64-2.32-7.17-3.67-2-1.76-3.01-4.09-3.01-6.99s.98-5.19,2.96-6.99c1.97-1.8,4.51-2.7,7.63-2.7s5.79,1.04,7.81,3.13c2.02,2.09,3.03,4.78,3.03,8.07h-2.95c0-2.52-.71-4.55-2.12-6.1-1.41-1.55-3.34-2.33-5.77-2.33s-4.23.64-5.59,1.92c-1.36,1.28-2.04,2.92-2.04,4.95,0,1.88.64,3.43,1.93,4.62,1.28,1.2,3.33,2.27,6.14,3.2,2.81.93,4.93,1.9,6.37,2.9,1.44,1,2.5,2.18,3.19,3.53.69,1.35,1.03,2.95,1.03,4.78,0,2.93-.99,5.29-2.97,7.08-1.98,1.79-4.6,2.68-7.85,2.68-2.19,0-4.19-.45-6-1.35s-3.22-2.19-4.24-3.88c-1.02-1.69-1.53-3.68-1.53-5.97h2.93c0,2.64.8,4.71,2.39,6.22,1.59,1.51,3.74,2.26,6.45,2.26,2.36,0,4.26-.63,5.69-1.9,1.43-1.27,2.15-2.96,2.15-5.09Z"/><path d="M118.36,305.21h-10.64v34.63h-2.96v-34.63h-10.61v-2.78h24.2v2.78Z"/><path d="M135.48,324.28h-8.74v15.57h-2.95v-37.41h10.25c3.41,0,6.05.97,7.93,2.92,1.88,1.94,2.81,4.65,2.81,8.11,0,2.42-.58,4.54-1.75,6.36s-2.73,3.09-4.7,3.79l7.79,15.9v.33h-3.13l-7.5-15.57ZM126.75,321.55h7.81c2.21,0,3.97-.76,5.29-2.27,1.32-1.52,1.98-3.46,1.98-5.82,0-2.62-.69-4.65-2.06-6.09-1.37-1.44-3.29-2.16-5.76-2.16h-7.27v16.34Z"/><path d="M169.26,329.39h-14.03l-3.19,10.46h-3.06l11.92-37.41h2.72l11.92,37.41h-3.06l-3.24-10.46ZM156.08,326.64h12.33l-6.17-20.07-6.17,20.07Z"/><path d="M198.67,305.21h-10.64v34.63h-2.95v-34.63h-10.61v-2.78h24.2v2.78Z"/><path d="M221.6,321.94h-14.52v15.18h16.7v2.72h-19.63v-37.41h19.5v2.78h-16.57v14h14.52v2.72Z"/><path d="M252.57,335.51c-1.25,1.61-2.83,2.82-4.73,3.63-1.9.81-3.98,1.22-6.24,1.22-3.84,0-6.85-1.28-9.04-3.85-2.19-2.57-3.33-6.13-3.42-10.69v-9.1c0-4.78,1.04-8.44,3.12-10.98s5.05-3.82,8.9-3.82c3.44,0,6.14.95,8.09,2.85,1.95,1.9,3.05,4.64,3.29,8.22h-2.93c-.31-2.88-1.15-4.98-2.53-6.31-1.38-1.33-3.34-1.99-5.9-1.99-3.05,0-5.33,1.02-6.85,3.04-1.52,2.03-2.27,5.01-2.27,8.93v8.63c0,3.91.83,6.94,2.5,9.1s4.01,3.24,7.03,3.24c3.27,0,5.94-1.04,8.02-3.11v-9.74h-8.2v-2.75h11.15v13.46Z"/><path d="M263.94,339.85h-2.93v-37.41h2.93v37.41Z"/><path d="M290.24,321.94h-14.52v15.18h16.7v2.72h-19.63v-37.41h19.5v2.78h-16.57v14h14.52v2.72Z"/><path d="M316,330.65c0-2.09-.6-3.73-1.79-4.93-1.19-1.2-3.41-2.35-6.67-3.44-3.25-1.1-5.64-2.32-7.17-3.67-2-1.76-3.01-4.09-3.01-6.99s.98-5.19,2.95-6.99c1.97-1.8,4.51-2.7,7.63-2.7s5.79,1.04,7.81,3.13c2.02,2.09,3.03,4.78,3.03,8.07h-2.95c0-2.52-.71-4.55-2.12-6.1-1.41-1.55-3.34-2.33-5.77-2.33s-4.23.64-5.59,1.92c-1.36,1.28-2.04,2.92-2.04,4.95,0,1.88.64,3.43,1.93,4.62,1.28,1.2,3.33,2.27,6.14,3.2,2.81.93,4.93,1.9,6.37,2.9,1.44,1,2.5,2.18,3.19,3.53.69,1.35,1.03,2.95,1.03,4.78,0,2.93-.99,5.29-2.97,7.08s-4.6,2.68-7.85,2.68c-2.19,0-4.19-.45-6-1.35-1.81-.9-3.22-2.19-4.24-3.88-1.02-1.69-1.53-3.68-1.53-5.97h2.93c0,2.64.8,4.71,2.39,6.22,1.59,1.51,3.74,2.26,6.45,2.26,2.36,0,4.26-.63,5.69-1.9,1.43-1.27,2.15-2.96,2.15-5.09Z"/></svg>
